<?xml version="1.0" standalone="no"?>
<!DOCTYPE svg PUBLIC "-//W3C//DTD SVG 20010904//EN"
 "http://www.w3.org/TR/2001/REC-SVG-20010904/DTD/svg10.dtd">
<svg version="1.0" xmlns="http://www.w3.org/2000/svg"
 width="700.000000pt" height="1280.000000pt" viewBox="0 0 700.000000 1280.000000"
 preserveAspectRatio="xMidYMid meet">
<metadata>
Created by potrace 1.15, written by Peter Selinger 2001-2017
</metadata>
<g transform="translate(0.000000,1280.000000) scale(0.100000,-0.100000)"
fill="#000000" stroke="none">
<path d="M3982 12756 c-15 -24 -35 -59 -45 -77 l-18 -32 -33 32 c-37 36 -81
52 -114 40 -26 -10 -26 -13 -6 -159 20 -143 15 -177 -32 -248 -63 -95 -89
-144 -118 -219 -24 -63 -49 -94 -64 -79 -2 3 1 36 9 73 7 37 12 97 12 133 -1
111 -73 347 -118 390 -28 26 -41 21 -115 -45 -28 -25 -56 -45 -64 -45 -7 0
-16 21 -22 52 -6 36 -14 54 -25 56 -24 4 -75 -43 -137 -126 l-55 -74 -24 31
c-29 37 -61 40 -91 9 -29 -32 -41 -68 -62 -181 -19 -104 -31 -130 -52 -109 -7
7 -26 12 -44 12 -25 0 -41 10 -77 50 -65 70 -82 68 -168 -22 -37 -40 -70 -70
-72 -68 -2 3 -10 23 -18 45 -20 53 -43 56 -70 10 -24 -40 -52 -55 -105 -55
-25 0 -44 -9 -73 -35 -21 -19 -42 -35 -46 -35 -4 0 -30 20 -56 45 -26 25 -52
45 -57 45 -14 0 -50 -43 -61 -73 -6 -16 -11 -93 -11 -172 0 -93 -4 -146 -11
-151 -6 -3 -41 14 -78 39 -87 60 -168 96 -228 103 -59 7 -82 -12 -90 -78 -9
-70 -17 -78 -75 -76 -45 1 -55 -3 -76 -27 -19 -23 -23 -36 -18 -65 4 -24 1
-43 -9 -56 -20 -27 -19 -45 10 -110 14 -31 25 -58 25 -60 0 -2 -86 -4 -191 -4
l-190 0 -27 -29 c-32 -34 -64 -51 -155 -80 -67 -23 -89 -42 -79 -71 8 -24 64
-79 114 -112 27 -16 48 -33 48 -37 0 -4 -40 -45 -90 -90 -49 -45 -90 -86 -90
-91 0 -4 48 -11 107 -15 161 -10 326 -43 362 -71 2 -2 -22 -33 -53 -70 l-57
-67 30 -31 c16 -17 33 -48 36 -69 4 -20 16 -48 27 -62 19 -25 19 -25 -1 -25
-11 0 -51 11 -89 25 -89 32 -99 32 -139 -7 -27 -26 -35 -29 -48 -18 -12 10
-26 6 -84 -30 l-69 -41 -160 0 c-140 1 -162 -1 -182 -17 -21 -17 -22 -21 -10
-56 7 -21 29 -55 50 -76 l38 -38 -24 -11 c-36 -16 -132 -39 -198 -47 -104 -12
-123 -53 -114 -250 5 -118 18 -144 72 -144 l31 -1 -40 -35 c-90 -78 -103 -95
-147 -180 -47 -91 -78 -179 -78 -221 0 -29 42 -73 69 -73 29 0 88 56 96 90 7
31 60 110 74 110 5 0 8 -48 8 -107 -1 -96 1 -114 23 -158 13 -27 45 -71 70
-97 39 -40 52 -48 83 -48 41 0 53 11 227 200 143 156 207 194 276 165 30 -12
54 -40 54 -63 0 -6 -22 -24 -48 -40 -26 -16 -68 -53 -92 -82 -139 -164 -249
-264 -392 -359 -83 -55 -99 -71 -70 -71 46 0 229 141 425 328 60 56 133 117
163 133 79 45 93 84 52 141 -23 33 -108 78 -148 78 -69 0 -254 -151 -325 -265
-27 -42 -58 -80 -70 -85 -36 -14 -76 1 -120 44 -53 51 -68 99 -65 215 4 136 3
141 -22 141 -31 0 -104 -81 -134 -148 -26 -61 -46 -82 -77 -82 -18 0 -19 5
-14 55 11 106 98 251 197 328 32 25 68 63 80 85 37 65 169 139 232 130 37 -5
31 -26 -26 -86 -59 -62 -65 -72 -41 -72 8 0 30 -11 50 -24 20 -14 79 -39 132
-57 l96 -32 -94 -48 c-100 -52 -136 -76 -128 -84 3 -2 37 9 76 25 39 16 113
41 164 55 104 28 390 78 416 73 11 -2 3 -12 -26 -33 -34 -23 -57 -30 -108 -33
-53 -4 -63 -7 -61 -21 3 -12 13 -15 41 -14 39 3 47 -7 22 -27 -9 -7 -15 -23
-13 -34 3 -19 12 -22 93 -27 73 -5 100 -11 145 -35 l55 -29 -100 -5 c-74 -4
-108 -10 -128 -23 -38 -25 -26 -37 31 -31 49 5 79 -6 68 -25 -4 -6 -40 -28
-79 -47 -173 -87 -298 -181 -341 -255 -18 -31 -15 -30 38 19 68 62 96 79 96
60 0 -8 -38 -81 -85 -163 -46 -82 -82 -151 -80 -153 8 -9 44 42 148 205 56 90
105 163 110 163 4 0 7 -10 7 -23 0 -46 -30 -123 -74 -190 -42 -64 -92 -175
-83 -184 3 -2 19 20 37 49 73 117 81 128 95 128 19 0 20 1 -12 -94 -39 -118
-63 -149 -152 -198 -154 -84 -222 -115 -308 -143 -48 -15 -109 -39 -136 -53
-26 -14 -49 -23 -52 -20 -3 3 8 34 25 69 24 50 29 72 25 100 -6 35 -3 39 54
90 34 29 61 59 61 66 0 17 -64 33 -137 33 -106 0 -95 -42 13 -50 l65 -5 -55
-44 c-63 -50 -74 -72 -52 -106 22 -34 20 -49 -14 -97 -33 -46 -39 -92 -13
-102 10 -4 45 8 88 29 67 34 206 67 221 52 3 -3 -1 -34 -10 -69 -35 -140 -30
-228 13 -228 10 0 38 21 60 48 l42 47 -7 -47 c-9 -72 2 -108 37 -115 18 -3 36
-17 46 -33 24 -41 87 -73 126 -66 18 3 90 33 161 66 71 33 130 60 132 60 13 0
1 -123 -16 -168 -20 -53 -27 -137 -12 -146 5 -3 32 3 59 14 28 10 74 22 102
26 l51 7 0 -32 c0 -20 5 -31 14 -31 7 0 40 -20 72 -45 31 -25 66 -45 77 -45
10 0 44 18 76 40 31 22 64 40 72 40 20 0 60 -43 94 -102 39 -69 63 -66 159 17
41 36 79 65 84 65 6 0 22 -14 35 -31 16 -21 30 -30 40 -26 14 5 60 61 110 131
12 17 28 26 45 26 15 1 52 9 82 20 30 10 56 18 57 16 1 -1 -16 -40 -37 -86
-37 -78 -47 -110 -36 -110 10 0 345 122 391 143 30 13 75 48 112 86 l63 64 0
-65 c0 -95 26 -110 109 -61 86 50 151 105 223 191 86 101 97 118 98 154 0 38
20 77 42 84 21 6 51 -11 106 -60 20 -19 69 -54 107 -78 78 -50 99 -71 110
-108 19 -63 173 -228 239 -255 25 -11 37 -23 41 -43 23 -111 51 -143 200 -226
98 -55 194 -139 231 -201 13 -23 36 -71 50 -106 34 -86 86 -170 100 -165 37
14 147 -205 227 -449 99 -304 201 -678 186 -683 -5 -2 -24 5 -41 16 -49 29
-358 141 -424 153 -33 6 -91 8 -131 5 -205 -19 -307 -86 -495 -330 -109 -141
-145 -214 -249 -499 -65 -181 -105 -256 -180 -345 -84 -99 -169 -162 -219
-162 -21 0 -51 -5 -67 -11 l-28 -11 24 -19 c18 -15 39 -19 90 -19 106 1 310
53 367 94 37 28 7 25 -102 -8 -130 -40 -174 -50 -174 -40 0 4 35 44 78 88 138
144 187 231 274 486 27 80 60 167 74 193 48 95 203 306 182 247 -3 -8 -29 -89
-58 -180 -28 -91 -83 -248 -121 -349 -38 -101 -68 -186 -65 -188 17 -18 165
331 211 499 45 161 75 235 125 307 94 132 195 191 345 199 141 7 340 -41 365
-88 5 -9 43 -29 84 -44 87 -32 129 -60 244 -164 45 -41 85 -73 87 -70 2 2 -5
34 -17 72 -19 55 -20 69 -9 76 10 5 16 41 20 119 3 62 10 112 16 113 6 0 18
-13 28 -30 17 -29 17 -32 1 -57 -22 -33 -14 -99 17 -131 29 -31 41 -31 29 1
-12 33 4 41 30 15 12 -12 20 -33 20 -52 0 -18 11 -51 24 -73 23 -37 23 -41 9
-57 -15 -16 -15 -25 0 -93 19 -85 21 -105 9 -105 -5 0 -14 22 -21 50 -23 90
-35 73 -28 -41 l6 -104 -30 59 c-17 32 -32 56 -33 55 -2 -2 2 -41 7 -87 12
-90 3 -135 -25 -140 -20 -4 -99 66 -129 115 -22 35 -22 36 -5 128 18 102 15
122 -29 179 -14 18 -25 38 -25 44 0 7 -7 12 -15 12 -9 0 -18 7 -21 15 -4 8
-16 15 -29 15 -12 0 -29 7 -36 16 -12 15 -11 16 11 9 23 -7 24 -6 11 9 -9 11
-23 15 -36 12 -14 -4 -47 10 -99 40 -73 44 -103 52 -77 20 6 -7 56 -44 111
-82 55 -38 100 -72 100 -76 0 -12 -92 31 -130 60 -19 14 -78 67 -130 117 -114
108 -156 126 -248 107 -200 -42 -321 -212 -478 -674 -53 -157 -80 -215 -155
-338 -40 -66 -49 -95 -26 -88 36 12 154 252 228 466 87 253 159 392 254 487
67 68 136 106 207 113 90 9 119 -10 234 -154 57 -72 86 -100 127 -120 28 -15
84 -48 123 -75 81 -54 94 -78 94 -168 1 -80 14 -127 50 -177 87 -121 154 -357
239 -840 71 -398 181 -1167 181 -1259 0 -60 -22 -85 -74 -85 -61 0 -134 -24
-188 -64 -27 -18 -81 -43 -120 -55 -194 -58 -220 -72 -306 -166 -66 -72 -140
-186 -235 -360 -131 -242 -169 -346 -202 -550 -35 -211 -10 -356 94 -563 45
-89 106 -151 184 -188 67 -31 104 -30 267 6 74 16 189 37 255 46 66 9 130 23
142 30 13 8 51 56 85 107 l62 92 9 -40 c11 -51 -8 -323 -33 -482 -10 -65 -35
-221 -54 -348 -40 -257 -63 -356 -106 -469 -39 -102 -39 -116 3 -116 17 0 47
4 64 9 23 7 46 5 80 -6 55 -17 201 -13 244 7 24 11 27 19 33 93 9 104 59 501
91 722 37 248 66 349 80 279 26 -130 45 -144 232 -170 62 -9 336 46 404 82 20
10 47 12 101 8 66 -6 78 -4 122 20 41 22 62 26 126 26 l77 0 6 53 c32 272 19
353 -139 832 -152 460 -250 647 -376 723 -81 48 -118 51 -176 15 -26 -16 -68
-35 -93 -41 -48 -12 -307 -35 -318 -28 -4 3 -8 73 -9 158 -3 184 -12 277 -58
643 -40 318 -67 483 -193 1200 -103 583 -126 700 -148 734 -14 22 -14 38 -3
136 16 140 3 209 -70 366 -61 132 -103 274 -136 466 -22 127 -25 167 -20 283
10 272 67 422 237 625 130 155 272 552 286 800 9 173 -26 569 -59 655 -12 32
-57 80 -76 80 -12 0 -13 -12 -6 -67 5 -38 9 -147 9 -243 l-1 -175 -38 -90
c-65 -154 -141 -275 -252 -400 -203 -230 -287 -414 -344 -747 -16 -95 -30
-175 -30 -178 -3 -16 -63 198 -75 270 -8 47 -20 101 -27 120 -18 59 -66 147
-100 186 -23 26 -34 51 -39 88 -9 64 -9 500 0 666 12 208 -23 312 -177 528
-89 124 -131 216 -162 346 -31 133 -29 143 27 168 72 32 117 34 149 9 49 -39
84 -19 84 48 0 16 4 32 8 35 5 3 31 -2 58 -10 27 -8 73 -15 102 -16 76 -1 200
62 287 145 58 56 65 66 65 102 0 34 -6 45 -52 87 l-53 49 43 39 c66 61 52 94
-48 120 -90 23 -88 20 -34 48 60 31 143 52 209 52 70 0 176 24 232 53 34 16
54 35 68 63 12 21 32 44 45 49 91 39 105 49 108 86 2 29 -4 44 -32 78 -42 50
-43 58 -16 111 23 44 26 80 8 98 -7 7 -38 12 -70 12 -57 0 -58 0 -58 28 0 36
24 58 88 81 77 28 137 74 265 202 132 132 138 145 82 199 -25 25 -36 45 -41
79 -9 63 -19 78 -54 86 -37 8 -60 39 -60 80 0 35 -15 55 -42 55 -10 0 -47 -27
-82 -59 -59 -55 -123 -98 -132 -89 -2 2 4 26 13 53 11 35 17 89 17 180 1 124
0 133 -28 188 -17 36 -38 63 -53 70 -22 10 -28 8 -44 -13 -52 -70 -65 -84 -95
-96 -47 -20 -54 -18 -54 17 0 72 -59 139 -96 108 -13 -11 -15 -25 -10 -74 6
-65 -6 -103 -24 -75 -5 8 -10 22 -10 31 0 9 -14 62 -31 118 l-31 101 17 85
c16 81 14 154 -5 185 -5 8 -36 17 -73 21 -41 4 -76 14 -94 27 -50 35 -76 37
-112 6 -27 -22 -38 -26 -74 -21 -42 6 -45 8 -105 87 -14 17 -33 30 -46 30 -36
0 -45 17 -39 74 8 74 -9 86 -83 57 -70 -26 -74 -26 -74 3 0 44 -9 56 -41 49
l-30 -6 8 44 c4 24 8 107 8 184 0 136 -1 140 -22 143 -30 4 -68 -18 -137 -79
-68 -62 -65 -63 -123 59 -19 42 -40 72 -49 72 -8 0 -27 -20 -42 -44z m59 -58
c13 -24 32 -72 45 -108 l22 -65 90 93 c89 91 117 107 129 76 5 -14 -19 -264
-34 -361 -6 -35 -6 -35 26 -28 22 5 31 3 31 -6 0 -7 -21 -77 -46 -157 -57
-182 -85 -214 -154 -179 -13 7 -27 23 -31 37 l-6 25 -11 -27 c-12 -29 -48 -46
-65 -29 -6 6 -14 11 -18 11 -4 0 -24 -44 -44 -97 -54 -144 -54 -145 -67 -141
-32 11 -31 36 6 154 46 149 63 231 75 364 10 105 8 145 -4 74 -29 -174 -83
-374 -110 -409 -14 -19 -16 -19 -29 -2 -8 10 -18 46 -22 80 l-7 62 -9 -44 c-9
-55 -24 -65 -61 -43 -104 61 -115 154 -27 237 66 62 74 91 80 289 3 120 9 181
16 183 6 2 35 -26 63 -62 29 -36 56 -63 61 -60 4 3 11 24 15 48 9 50 45 127
61 127 2 0 13 -19 25 -42z m-817 -134 c3 -9 6 -33 6 -54 0 -59 15 -90 44 -90
16 0 24 5 21 13 -12 29 91 137 131 137 23 0 41 -28 48 -72 3 -24 20 -100 38
-170 l33 -127 -18 -66 c-27 -102 -57 -176 -74 -182 -20 -8 -117 23 -133 42 -7
8 -15 38 -19 67 l-7 53 -8 -42 c-14 -75 -56 -84 -75 -16 -6 21 -11 52 -12 68
-1 19 -4 11 -9 -22 -9 -62 -40 -127 -63 -131 -18 -4 -18 -5 9 135 16 84 18
129 5 138 -13 7 -28 -44 -41 -135 -6 -41 -21 -114 -32 -163 -12 -48 -18 -90
-15 -94 4 -3 29 15 56 40 97 91 204 90 284 -4 l37 -43 48 45 c103 100 143 110
213 56 81 -61 115 -120 144 -251 l6 -29 -96 6 c-100 6 -98 6 -138 -43 -15 -17
-21 -19 -33 -10 -8 7 -14 22 -14 33 0 52 -12 -1 -21 -94 -6 -56 -15 -114 -21
-128 -9 -25 -10 -25 -24 -7 -10 14 -14 53 -15 140 -1 106 -2 114 -10 68 -18
-110 -49 -116 -70 -14 -14 70 -28 92 -57 92 -37 0 -62 18 -62 45 0 28 -12 32
-30 10 -7 -8 -18 -15 -25 -15 -23 0 -65 41 -74 73 l-9 32 -1 -30 c-1 -41 -36
-95 -61 -95 -31 0 -40 29 -55 182 -18 169 -24 200 -36 192 -5 -3 -9 -66 -9
-140 0 -80 -4 -134 -10 -134 -20 0 -42 51 -54 127 -8 43 -14 64 -15 46 -2 -65
-39 -109 -68 -81 -12 13 -52 172 -53 211 0 14 7 12 42 -13 38 -28 44 -29 54
-15 7 9 15 60 19 113 7 93 48 252 65 252 4 0 20 -38 35 -85 32 -96 50 -107 70
-39 23 79 119 234 145 234 4 0 11 -7 14 -16z m1293 -315 c1 -24 2 -50 2 -57 1
-7 13 -17 29 -22 50 -19 70 -32 81 -56 5 -13 33 -35 60 -49 73 -36 86 -61 72
-132 -15 -75 -25 -86 -74 -79 -55 9 -117 -23 -161 -82 -18 -26 -59 -98 -90
-160 -51 -102 -58 -112 -76 -102 -40 21 -48 143 -23 343 4 37 3 47 -9 47 -8 0
-23 9 -33 20 -18 20 -18 22 9 86 14 36 29 86 33 111 8 61 58 131 113 160 24
13 49 22 54 20 6 -2 12 -24 13 -48z m-1800 -127 c15 -25 38 -84 51 -131 13
-47 29 -102 34 -121 10 -33 9 -38 -21 -67 -19 -19 -31 -42 -31 -57 0 -15 -6
-26 -14 -26 -16 0 -29 30 -50 113 -8 33 -17 62 -20 65 -12 12 -5 -42 24 -178
33 -155 34 -160 22 -160 -5 0 -15 19 -22 43 -14 48 -87 197 -96 197 -3 0 -3
-11 0 -25 10 -40 -9 -29 -37 23 -64 118 -85 259 -52 340 9 20 35 56 58 80 l42
43 43 -47 c24 -26 55 -67 69 -92z m-646 -58 l52 -66 61 61 c34 34 70 61 80 61
10 0 34 -10 54 -22 28 -17 38 -19 54 -9 10 6 23 9 28 6 37 -23 61 -345 30
-395 -10 -17 -42 -5 -95 36 -25 19 -48 34 -52 34 -3 0 -3 -36 1 -80 3 -44 4
-80 1 -80 -11 0 -53 78 -76 140 -19 52 -25 60 -27 39 -2 -15 15 -73 37 -129
23 -56 41 -104 41 -106 0 -2 -18 -1 -40 2 -46 8 -52 -5 -20 -46 22 -28 27 -64
8 -58 -17 6 -173 290 -192 351 -31 98 -39 176 -25 255 6 39 15 72 20 72 4 0
31 -30 60 -66z m2819 6 c10 -5 27 -25 39 -45 11 -19 25 -35 32 -35 6 0 28 14
49 30 49 39 66 38 80 -5 13 -41 7 -78 -20 -123 -16 -25 -26 -32 -52 -32 -20 0
-51 -12 -77 -29 -60 -40 -91 -24 -91 46 0 24 -2 24 -30 -15 -33 -46 -80 -79
-61 -44 6 11 20 66 30 121 22 114 25 119 55 131 28 11 25 11 46 0z m-730 -170
c106 -17 97 -5 104 -148 8 -157 21 -242 43 -281 l17 -29 -44 -58 c-46 -58
-116 -121 -125 -113 -3 3 2 40 10 83 8 43 15 103 15 134 -1 50 -2 55 -14 40
-7 -10 -16 -18 -19 -18 -13 0 -23 66 -16 98 8 38 7 38 -31 10 -27 -20 -31 -20
-43 -6 -6 9 -25 18 -42 20 -22 2 -34 11 -44 33 l-15 30 -10 -27 c-17 -41 -47
-68 -75 -67 l-26 0 23 16 c12 8 22 24 22 35 0 11 20 42 44 70 25 27 54 74 66
106 34 91 36 91 160 72z m-2423 -52 c88 -48 270 -177 307 -219 46 -50 37 -59
-35 -33 l-51 19 -29 -33 c-16 -18 -31 -49 -35 -71 -11 -66 -20 -71 -57 -28
-37 43 -47 46 -47 13 0 -14 -9 -32 -22 -40 -18 -13 -22 -28 -26 -96 l-5 -81
-31 30 c-43 41 -51 39 -21 -5 28 -42 32 -85 10 -108 -15 -14 -30 -18 -119 -30
-46 -6 -76 -31 -76 -62 0 -45 35 -42 62 6 41 72 170 10 274 -132 38 -51 71
-66 59 -25 -4 12 -32 61 -62 110 -30 48 -59 104 -65 124 -10 38 -7 137 5 150
4 3 24 -2 46 -12 46 -20 57 -16 66 28 15 71 67 217 76 217 19 0 153 -109 188
-153 67 -83 95 -172 111 -348 6 -63 16 -142 23 -176 8 -35 12 -63 10 -63 -3 0
-24 13 -47 29 -48 33 -102 91 -118 127 -13 27 -28 32 -28 9 0 -30 39 -91 82
-131 65 -60 131 -95 227 -121 65 -17 91 -29 104 -48 11 -14 49 -43 85 -64 87
-51 162 -131 162 -172 0 -23 -22 -17 -129 32 -46 22 -86 38 -88 36 -1 -2 32
-30 74 -62 l78 -58 -43 7 c-100 15 -217 104 -269 201 -29 56 -43 69 -43 38 1
-92 171 -259 297 -293 26 -7 52 -17 58 -21 17 -16 -141 -10 -180 7 -34 14 -39
14 -56 -2 -17 -15 -22 -16 -45 -3 -64 34 -114 150 -114 263 0 65 -3 75 -22 88
-13 9 -85 70 -162 137 -76 66 -142 121 -148 121 -26 0 100 -127 260 -262 31
-25 32 -29 32 -107 0 -45 -2 -81 -5 -81 -3 0 -33 14 -68 31 -73 37 -63 19 27
-46 33 -25 81 -73 106 -107 32 -43 61 -69 95 -87 54 -28 128 -81 122 -88 -3
-2 -42 10 -88 27 -101 37 -269 128 -269 147 0 21 27 15 54 -12 16 -16 36 -25
56 -25 32 0 41 17 13 26 -102 30 -231 148 -294 269 -40 77 -71 101 -119 90
-37 -8 -39 -16 -31 -103 4 -39 3 -72 -1 -72 -14 0 -110 51 -155 82 -59 40 -97
100 -154 241 -27 67 -54 126 -59 131 -17 17 -12 -34 11 -109 12 -39 24 -83 26
-99 5 -27 4 -28 -21 -22 -14 3 -26 3 -26 -2 0 -14 43 -50 65 -54 10 -2 30 -19
42 -38 30 -46 91 -107 126 -128 36 -21 34 -30 -4 -24 -43 6 -34 -19 11 -34 34
-11 53 -34 30 -34 -18 0 -125 56 -202 106 -136 88 -178 97 -111 23 48 -53 63
-79 63 -113 0 -20 -5 -26 -22 -26 -13 1 -34 7 -48 15 -44 25 -45 16 -2 -28 25
-25 42 -52 42 -66 0 -20 -4 -22 -29 -16 -43 9 -49 -13 -8 -30 40 -16 48 -31
36 -62 -12 -34 -63 -34 -138 -1 -52 23 -174 58 -180 52 -3 -3 5 -12 18 -20 14
-10 19 -20 13 -26 -5 -5 -65 -13 -133 -18 -212 -17 -269 -30 -339 -81 -55 -40
-45 -47 18 -14 27 14 80 31 117 36 87 14 320 7 360 -11 l30 -13 -41 -11 c-22
-6 -48 -18 -57 -27 -9 -10 -42 -19 -79 -23 -115 -12 -148 -18 -148 -28 0 -5
39 -6 98 -2 66 4 105 3 119 -5 27 -14 67 -77 60 -95 -3 -8 -42 -33 -87 -57
-82 -44 -140 -96 -140 -125 0 -8 5 -24 10 -34 9 -16 5 -22 -22 -36 -18 -10
-65 -19 -103 -22 -64 -4 -77 -1 -133 27 -34 17 -79 35 -100 39 -53 11 -55 45
-6 103 20 24 40 55 46 68 12 33 -5 73 -42 95 -33 19 -38 41 -14 74 20 29 9 45
-25 37 -35 -8 -51 -32 -44 -65 6 -32 0 -37 -81 -65 -33 -11 -62 -26 -64 -34
-3 -9 2 -11 19 -7 19 5 16 0 -16 -26 -22 -18 -57 -51 -78 -73 -50 -52 -68 -42
-83 46 -5 35 -16 74 -22 86 -15 27 -15 61 -1 101 13 38 30 44 218 76 84 14
149 30 158 39 13 13 6 23 -57 87 -54 53 -69 75 -61 83 7 7 69 14 149 18 90 5
161 15 207 28 38 12 79 18 90 15 11 -4 44 -24 74 -45 85 -61 120 -48 61 23
-38 46 -43 82 -14 86 12 2 65 -16 119 -38 99 -43 155 -62 155 -54 0 2 -18 40
-40 84 -46 91 -49 112 -18 132 l22 15 -32 28 c-58 51 -34 109 69 169 70 42 85
72 70 140 -18 80 -56 152 -112 211 -29 31 -50 57 -48 59 2 2 77 0 167 -6 90
-5 170 -7 179 -4 16 7 11 18 -85 175 -50 81 -63 123 -42 136 15 9 12 43 -7 93
-15 40 -15 44 0 60 18 18 14 18 169 -28 43 -13 81 -21 84 -17 4 4 -16 31 -44
61 -56 59 -69 105 -34 125 30 18 95 12 139 -11z m3265 -35 c39 -44 108 -214
124 -305 3 -20 12 -45 19 -55 13 -17 14 -17 33 0 11 10 30 45 42 78 13 33 25
58 27 55 3 -2 12 -19 21 -38 14 -28 23 -34 56 -36 31 -3 49 4 99 37 67 46 78
44 98 -17 19 -55 16 -247 -5 -296 -44 -104 -258 -312 -383 -372 -41 -20 -77
-33 -80 -30 -3 3 30 44 73 91 105 115 138 155 131 161 -3 3 -32 -23 -65 -58
-119 -124 -168 -124 -82 -1 57 83 165 281 157 289 -2 3 -26 -32 -52 -78 -63
-110 -115 -188 -125 -188 -4 0 -6 18 -3 40 4 30 1 45 -11 59 -17 18 -16 23 4
96 21 75 21 116 0 59 -24 -67 -33 -84 -42 -84 -6 0 -8 19 -4 48 28 234 16 326
-55 408 -36 42 -40 51 -34 83 8 41 22 71 34 71 4 0 15 -8 23 -17z m-2052 -44
c83 -83 82 -82 84 -242 1 -150 -12 -223 -41 -234 -12 -5 -39 18 -94 75 -42 45
-82 82 -88 82 -29 0 -83 -136 -101 -255 -16 -106 -21 -125 -32 -125 -20 0 -79
72 -119 146 -23 41 -42 74 -43 74 -1 0 0 -27 2 -60 7 -96 -14 -80 -98 75 -24
43 -46 73 -48 66 -6 -17 71 -171 104 -211 30 -34 36 -36 59 -14 9 9 18 14 21
11 9 -9 -24 -77 -41 -83 -28 -11 -76 19 -117 73 -22 29 -45 53 -50 53 -5 0 5
-27 23 -60 18 -33 29 -63 25 -67 -3 -4 -19 -2 -33 3 -23 8 -34 26 -67 109 -36
93 -39 108 -40 205 l-1 105 33 3 c25 3 32 8 32 25 0 12 7 35 15 51 8 15 15 39
15 52 0 32 12 30 54 -7 53 -46 70 -37 73 36 4 81 12 125 23 125 18 0 69 -92
137 -247 37 -84 70 -150 74 -145 13 14 39 137 50 232 13 116 25 143 64 150 18
3 34 14 40 28 14 32 28 28 85 -29z m1741 5 c22 -21 38 -26 90 -29 52 -2 66 -7
79 -25 20 -30 62 -71 94 -93 24 -16 26 -24 26 -86 0 -127 -67 -391 -99 -391
-4 0 -11 30 -14 66 -6 65 -19 94 -41 94 -6 0 -65 -55 -131 -123 -143 -147
-174 -165 -251 -147 l-53 13 50 61 c100 122 183 261 177 299 -2 17 -21 -6 -79
-94 -42 -63 -106 -147 -142 -186 -65 -68 -149 -125 -163 -110 -4 4 14 30 42
58 30 32 44 53 37 56 -19 7 -16 16 17 58 53 67 36 74 -37 16 -92 -72 -135 -84
-146 -39 -4 15 4 29 29 52 167 149 246 252 342 443 28 56 62 109 74 117 33 23
68 20 99 -10z m-1476 -78 c62 -29 117 -89 185 -205 54 -92 88 -123 118 -105 9
5 37 51 62 101 25 50 54 101 64 112 30 33 75 27 146 -20 l62 -42 68 12 c61 11
73 11 106 -5 70 -33 76 -55 71 -259 -5 -186 -17 -257 -58 -342 -11 -22 -27
-44 -36 -47 -14 -6 -15 3 -9 79 10 116 -12 148 -76 114 -20 -11 -21 -10 -14
70 5 51 4 81 -3 81 -5 0 -12 -13 -16 -30 -12 -54 -22 -32 -27 55 -2 47 -7 87
-10 91 -3 3 -15 0 -26 -7 -31 -19 -55 4 -46 45 l6 31 -29 -27 c-16 -16 -31
-28 -34 -28 -2 0 -2 24 0 52 1 29 0 51 -3 47 -3 -3 -27 -50 -54 -105 -27 -55
-57 -105 -66 -113 -20 -16 -20 -4 -1 29 16 29 20 74 5 65 -5 -3 -10 -14 -10
-24 0 -49 -65 -58 -127 -17 -31 21 -49 27 -68 22 -34 -9 -88 -94 -105 -166
-15 -63 -37 -120 -47 -120 -3 0 -3 47 1 104 6 101 -2 156 -23 156 -6 0 -11
-37 -13 -82 -2 -64 -6 -83 -17 -83 -18 0 -27 35 -37 150 -5 50 -10 74 -11 55
-2 -19 -9 -60 -14 -90 l-11 -54 -25 29 c-23 26 -25 34 -19 89 3 34 9 133 12
221 4 88 11 166 16 173 16 18 58 14 113 -12z m-1365 -302 c0 -18 -14 -18 -30
1 -16 19 -3 40 16 24 8 -6 14 -18 14 -25z m-549 2 c24 -7 71 -26 104 -42 l60
-28 -80 -13 c-44 -7 -128 -17 -187 -22 -58 -5 -111 -12 -117 -16 -23 -13 -10
-25 29 -25 40 0 75 -23 142 -95 36 -38 87 -140 95 -188 7 -44 -7 -48 -59 -18
-33 19 -164 48 -174 39 -2 -3 17 -13 43 -23 68 -26 97 -46 81 -56 -14 -9 -18
-8 -118 15 -36 8 -100 18 -142 22 -43 4 -85 12 -94 19 -25 18 -10 49 46 91
l49 37 -84 81 c-47 45 -85 87 -85 93 0 19 47 39 133 57 43 9 108 29 145 45 37
16 74 31 82 34 28 10 87 7 131 -7z m1552 -42 c11 -15 73 -65 136 -112 126 -94
163 -129 190 -182 25 -49 29 -70 45 -237 8 -82 18 -157 22 -168 7 -18 6 -19
-9 -6 -10 8 -43 61 -74 118 -91 166 -81 115 20 -112 35 -78 40 -109 10 -70
-27 37 -171 334 -192 398 -22 64 -45 106 -54 97 -5 -5 50 -174 91 -279 12 -30
19 -57 17 -60 -10 -9 -77 64 -123 134 -25 39 -47 72 -49 74 -2 2 -6 1 -10 -2
-3 -4 15 -50 42 -103 l47 -96 -32 -33 -32 -33 21 -47 c24 -54 24 -55 12 -55
-5 0 -20 17 -32 38 -46 75 -230 245 -246 228 -4 -4 22 -36 57 -71 36 -36 62
-65 59 -65 -3 0 -21 7 -38 16 -18 9 -76 23 -128 31 -122 18 -188 49 -250 117
-45 49 -84 128 -70 142 9 10 307 24 350 17 46 -7 79 -45 162 -183 65 -110 78
-125 99 -117 25 10 19 29 -25 88 -106 139 -153 326 -114 456 15 52 49 103 67
103 5 0 19 -12 31 -26z m920 -63 c13 -12 23 -48 33 -112 20 -141 19 -137 67
-149 67 -17 72 -22 75 -80 4 -67 -9 -99 -53 -129 -20 -13 -61 -57 -91 -98 -40
-54 -59 -71 -65 -62 -11 19 -15 5 -39 -146 -11 -71 -23 -131 -25 -133 -13 -14
-20 50 -20 187 0 145 -1 151 -13 105 -21 -76 -33 -104 -48 -104 -21 0 -18 102
6 240 20 118 24 210 11 244 -7 18 -8 18 -14 -5 -4 -13 -7 -39 -7 -57 0 -78
-74 -353 -90 -336 -4 5 -13 26 -20 47 -13 42 -17 44 -35 20 -11 -15 -14 -1
-20 85 -4 56 -11 100 -15 97 -4 -2 -10 -46 -13 -96 -4 -51 -11 -97 -17 -104
-5 -6 -24 -10 -41 -7 -28 4 -31 2 -25 -13 5 -15 4 -16 -9 -5 -54 45 -43 309
20 470 23 59 69 140 80 140 2 0 27 -20 55 -45 41 -36 58 -45 88 -45 46 0 73
18 113 76 29 42 34 45 63 40 17 -4 39 -15 49 -25z m1996 -35 c7 -8 9 -25 5
-40 -8 -33 7 -51 62 -76 46 -20 47 -22 44 -84 -1 -31 4 -45 30 -71 25 -26 30
-37 22 -50 -20 -36 -140 -148 -203 -190 -127 -85 -242 -126 -416 -150 -60 -8
-118 -17 -130 -20 -64 -15 13 -40 164 -55 75 -7 100 -13 118 -30 19 -18 32
-20 91 -18 64 3 69 1 72 -18 2 -14 -13 -39 -47 -75 l-50 -54 62 -57 c60 -56
61 -58 42 -73 -11 -9 -31 -18 -45 -21 -64 -12 -75 -20 -97 -65 -17 -38 -30
-50 -71 -67 -84 -36 -192 -54 -192 -32 0 5 36 49 81 97 45 49 88 99 97 112 15
23 15 25 -21 57 -20 18 -49 36 -64 39 -42 9 -73 23 -73 33 0 5 9 19 20 32 26
30 36 68 23 89 -7 12 -30 17 -84 19 -96 4 -103 10 -96 90 6 73 22 97 75 107
103 19 330 144 422 233 62 60 56 59 -45 -8 -104 -70 -231 -136 -316 -164 -60
-20 -95 -25 -165 -25 -49 1 -102 -4 -117 -10 -42 -16 -52 -13 -32 9 10 11 35
24 55 30 50 13 130 15 138 3 10 -14 40 -23 57 -17 20 8 19 31 -1 42 -13 7 -1
21 67 72 103 78 257 209 364 311 77 73 122 109 136 109 4 0 12 -6 18 -14z
m-949 -86 c0 -36 5 -55 20 -70 22 -22 36 -19 97 22 51 34 61 35 69 4 7 -29
-12 -190 -28 -237 -26 -77 -153 -216 -236 -258 -52 -27 -158 -55 -178 -47 -21
8 -10 22 23 29 16 3 48 27 73 52 l45 47 -49 -31 c-56 -35 -78 -38 -97 -15 -16
19 0 34 127 126 87 63 114 95 89 104 -9 4 -24 -6 -40 -24 -27 -32 -157 -112
-216 -132 -30 -11 -42 -10 -68 1 -17 8 -31 17 -31 21 0 22 63 74 140 114 87
46 159 104 129 104 -8 0 -57 -27 -109 -60 -52 -33 -100 -60 -107 -60 -40 0 17
78 153 211 176 169 194 179 194 99z m-550 -50 c-11 -20 -129 -120 -142 -120
-12 0 -9 22 5 47 15 27 56 59 99 78 44 19 51 18 38 -5z m101 -288 c-20 -95
-26 -142 -17 -142 23 0 112 -23 123 -31 7 -6 13 -24 13 -40 0 -19 12 -43 36
-69 30 -33 35 -45 29 -68 -26 -100 -12 -198 36 -243 51 -48 41 -91 -43 -188
-21 -25 -68 -104 -103 -177 -96 -197 -111 -203 -355 -155 -174 35 -243 38
-298 16 -38 -16 -106 -75 -124 -108 -8 -16 -6 -18 14 -15 20 3 23 -1 23 -27 0
-27 -3 -30 -30 -29 -16 1 -58 12 -92 25 -68 26 -93 19 -50 -15 30 -24 34 -36
12 -36 -23 0 -18 -16 16 -44 39 -33 56 -33 35 -1 -25 38 -20 45 24 30 95 -33
206 -101 265 -160 52 -51 69 -79 118 -186 31 -70 71 -169 88 -220 42 -122 37
-151 -34 -224 -45 -46 -62 -56 -127 -75 -108 -31 -226 -91 -295 -149 -78 -67
-113 -69 -150 -11 -43 69 -83 66 -130 -7 -33 -52 -124 -119 -174 -129 -30 -6
-32 -4 -52 42 -12 27 -26 54 -31 61 -16 20 -38 3 -63 -46 -13 -26 -31 -53 -39
-60 -26 -22 -46 4 -46 58 0 26 -6 56 -14 66 -13 18 -17 16 -70 -35 -31 -29
-59 -50 -63 -47 -3 4 8 56 25 116 18 60 32 123 32 140 0 25 12 39 73 88 87 72
153 152 203 247 51 99 54 102 73 77 15 -20 16 -18 12 36 -1 31 2 74 9 96 9 33
14 37 26 26 9 -7 27 -13 40 -14 24 -1 25 1 19 47 -9 66 -39 179 -56 210 -69
126 -96 157 -114 128 -3 -5 -1 -27 4 -47 6 -21 16 -96 23 -168 14 -156 -1
-248 -56 -360 -69 -138 -147 -222 -288 -307 -70 -43 -99 -49 -91 -18 4 14 0
20 -11 20 -28 0 -120 -46 -176 -89 -30 -22 -59 -41 -65 -41 -6 0 -19 16 -28
35 -9 20 -24 38 -32 41 -9 4 -48 -15 -93 -44 -83 -55 -140 -82 -171 -82 -32 0
-53 41 -46 87 12 74 -13 10 -54 -139 -51 -187 -76 -247 -147 -355 -63 -98
-267 -308 -323 -335 -44 -21 -56 -15 -67 30 -6 24 -17 41 -32 47 -19 8 -23 17
-20 47 1 20 -1 40 -4 43 -3 4 -43 -5 -88 -19 -44 -14 -94 -26 -111 -26 -32 0
-32 -2 -8 90 14 55 24 230 12 230 -5 0 -77 -34 -158 -75 -175 -89 -204 -94
-248 -45 -23 25 -28 39 -23 61 4 24 2 29 -13 29 -10 0 -30 -10 -45 -21 l-27
-22 3 94 c4 113 -7 122 -75 60 -24 -23 -47 -41 -51 -41 -10 0 -7 60 9 150 8
47 15 86 15 88 0 6 167 110 188 116 31 10 28 -6 -13 -83 -19 -36 -33 -67 -30
-69 4 -4 42 54 156 236 19 30 48 61 64 69 17 9 56 38 88 64 101 84 97 57 -10
-75 -35 -43 -62 -81 -59 -84 3 -3 27 15 54 40 48 45 114 70 133 51 5 -5 -22
-53 -60 -108 -37 -55 -71 -108 -74 -117 -11 -30 7 -19 35 22 27 39 71 60 127
60 18 0 22 -4 16 -17 -12 -31 -55 -185 -55 -196 0 -23 19 10 51 88 40 96 78
163 127 224 41 50 115 101 146 101 12 0 36 9 55 21 18 11 36 17 40 14 5 -6
-16 -27 -173 -173 -37 -35 -66 -66 -63 -69 3 -2 45 25 94 62 92 71 129 92 139
82 15 -15 -12 -60 -106 -176 -56 -69 -104 -130 -107 -135 -3 -6 51 45 121 114
l126 125 -7 -50 c-12 -91 -13 -90 31 -87 24 2 42 -2 47 -9 9 -15 -10 -65 -42
-112 -14 -20 4 -7 44 32 37 36 69 62 73 58 15 -14 -177 -236 -250 -289 -30
-22 -35 -28 -19 -28 11 0 40 14 63 32 64 45 317 295 342 337 12 20 45 66 73
103 27 37 79 120 114 185 159 291 276 430 496 585 l60 42 -97 -102 c-95 -100
-157 -186 -143 -200 4 -4 23 13 44 38 20 25 76 88 126 140 49 53 98 110 107
128 12 23 24 32 42 32 14 0 27 -4 30 -9 8 -12 -63 -101 -114 -142 -63 -52
-192 -230 -177 -245 3 -3 33 29 66 72 34 42 61 69 61 61 0 -9 -23 -74 -51
-144 -51 -128 -85 -240 -76 -250 8 -7 29 37 90 192 31 77 71 172 89 210 l33
70 6 -155 c10 -232 24 -242 33 -25 9 231 16 262 68 313 45 45 135 96 188 107
19 4 41 12 49 18 11 10 9 13 -10 18 -32 7 -80 -6 -158 -43 -54 -26 -69 -30
-92 -21 -68 26 -200 -56 -409 -252 -96 -90 -158 -140 -165 -133 -3 3 2 21 10
41 8 20 15 39 15 42 0 11 -28 4 -40 -10 -9 -11 -33 -15 -84 -15 -285 -2 -364
-37 -468 -207 -53 -86 -106 -143 -134 -143 -28 0 -163 -91 -227 -151 -34 -32
-63 -57 -65 -55 -2 2 13 36 33 75 41 78 40 103 -1 99 -24 -3 -29 2 -36 32 -19
73 -48 75 -124 9 -75 -64 -102 -72 -83 -22 5 13 15 82 23 153 16 141 22 157
74 213 38 39 55 47 46 22 -13 -32 21 -13 77 45 52 52 69 62 137 84 88 28 302
71 404 81 98 10 128 1 203 -60 82 -66 124 -83 162 -62 16 8 46 24 67 36 41 22
65 19 45 -5 -7 -8 -39 -34 -72 -57 -70 -49 -55 -64 21 -22 74 40 175 137 264
251 90 118 134 158 219 204 53 28 169 54 169 37 0 -3 -29 -15 -64 -27 -34 -11
-72 -27 -82 -36 -18 -14 -16 -15 21 -9 22 3 115 8 208 11 92 4 167 10 167 14
0 4 -27 15 -60 24 -33 9 -60 21 -60 25 0 11 47 31 74 31 13 0 47 -21 80 -50
61 -54 76 -60 76 -32 0 25 43 113 88 179 50 74 65 103 54 103 -5 0 -35 -34
-67 -76 -31 -42 -58 -74 -60 -72 -2 2 7 39 20 81 42 139 72 397 46 397 -12 0
-26 -73 -40 -202 -6 -55 -21 -124 -35 -160 -14 -35 -25 -58 -25 -53 -1 6 -15
70 -31 144 -17 73 -35 165 -41 204 -6 40 -17 83 -25 97 -12 23 -13 21 -14 -35
0 -72 44 -323 76 -428 4 -11 -22 2 -78 39 -86 58 -177 108 -184 101 -9 -8 55
-58 91 -70 22 -8 41 -22 43 -31 3 -15 -3 -16 -56 -10 -64 7 -83 -3 -57 -30 9
-8 34 -20 56 -26 46 -13 46 -27 2 -53 -31 -18 -31 -18 -60 9 -93 88 -314 115
-474 58 -50 -18 -146 -91 -134 -102 3 -3 29 11 57 31 29 20 79 43 111 51 81
21 177 31 177 18 0 -9 -160 -82 -181 -82 -5 0 -9 -5 -9 -11 0 -14 40 -5 183
43 65 22 121 38 124 34 12 -12 -20 -34 -80 -56 -34 -12 -77 -33 -95 -47 -18
-13 -46 -26 -63 -28 -34 -5 -129 -54 -129 -67 0 -4 17 -1 38 8 73 32 75 31 58
-9 -26 -62 -113 -190 -164 -240 l-49 -49 -5 51 c-8 84 -47 103 -63 31 -16 -72
-80 -105 -148 -77 -20 9 -62 33 -94 55 -32 21 -68 42 -80 46 -37 12 -26 33 30
59 91 42 246 196 303 300 22 42 28 68 34 157 4 58 14 119 21 136 13 26 19 29
59 27 69 -3 270 -110 270 -143 0 -4 -13 -10 -30 -13 -16 -4 -30 -11 -30 -17 0
-13 46 -13 85 1 27 10 42 7 120 -25 88 -36 115 -42 115 -29 0 4 -36 44 -80 89
-77 78 -80 83 -80 128 0 76 20 109 76 131 27 10 61 27 76 37 59 41 98 150 98
274 0 101 20 109 73 30 43 -65 87 -100 145 -116 60 -16 103 0 149 56 57 68
101 57 208 -50 61 -61 63 -70 54 -238 -8 -131 -22 -172 -89 -263 -69 -93 -107
-178 -91 -204 16 -24 58 -4 86 42 l27 42 -5 -41 c-9 -77 -89 -172 -122 -144
-8 7 -15 23 -15 36 0 26 -10 30 -28 12 -18 -18 -14 -49 10 -75 30 -32 53 -29
108 17 71 60 110 123 110 179 0 92 22 216 51 292 17 43 46 131 65 196 55 190
110 315 165 377 20 23 72 55 156 96 106 52 282 127 333 142 24 7 24 -55 1
-170z m-181 143 c0 -16 -27 -32 -37 -21 -7 7 16 36 28 36 5 0 9 -7 9 -15z
m-1460 -290 c17 -9 62 -45 102 -80 39 -36 78 -65 85 -65 22 0 15 -33 -19 -90
-34 -55 -61 -80 -75 -67 -4 5 -10 44 -14 89 -5 55 -13 89 -26 106 -32 43 -90
84 -145 103 l-53 18 58 1 c33 0 71 -7 87 -15z m-701 -157 c57 -109 75 -133
153 -209 48 -47 88 -90 88 -97 0 -17 -41 -42 -70 -42 -15 0 -56 18 -93 40 -71
43 -77 45 -77 30 0 -5 32 -33 70 -62 39 -29 66 -54 61 -56 -17 -6 -123 56
-197 113 -99 78 -114 88 -121 82 -3 -3 40 -55 96 -114 55 -59 101 -111 101
-116 0 -12 -35 0 -134 50 -176 88 -183 77 -21 -30 78 -52 110 -78 110 -92 0
-33 -56 -31 -132 4 -36 17 -70 31 -77 31 -22 -1 68 -70 106 -82 21 -6 45 -19
54 -29 16 -17 16 -19 0 -25 -28 -11 -145 24 -199 58 -80 51 -157 162 -193 277
-8 25 -18 92 -21 149 -5 91 -4 102 11 102 9 0 58 -25 108 -55 51 -31 103 -55
118 -55 29 0 40 15 40 55 0 13 3 30 6 39 5 14 9 13 34 -4 45 -32 50 -27 50 55
0 46 6 90 16 113 l15 37 17 -22 c9 -12 46 -77 81 -145z m3031 132 c6 -11 9
-56 8 -101 -3 -79 -2 -82 25 -103 22 -16 43 -21 90 -21 70 0 73 -7 31 -62 -43
-56 -25 -87 61 -107 34 -8 75 -33 75 -45 0 -18 -68 -93 -120 -132 -76 -57
-121 -78 -225 -105 -49 -13 -100 -26 -112 -30 -20 -6 -23 -3 -23 25 0 61 60
135 123 152 35 9 84 45 74 55 -2 2 -29 -7 -61 -21 -82 -36 -90 -35 -83 20 9
61 31 102 70 125 l32 20 -27 0 c-43 0 -49 58 -11 102 8 9 12 21 9 27 -9 14
-97 29 -219 37 l-108 6 54 23 c30 12 99 49 153 82 55 33 106 63 114 66 32 11
60 6 70 -13z m-1760 -58 c0 -10 -22 -32 -32 -32 -4 0 -8 9 -8 20 0 13 7 20 20
20 11 0 20 -4 20 -8z m1593 -161 c21 -5 40 -11 42 -13 4 -4 -55 -264 -84 -366
-22 -81 -60 -168 -91 -212 -27 -37 -107 -75 -216 -101 -89 -21 -103 -18 -104
19 0 27 40 88 67 102 50 25 133 92 166 134 27 35 22 32 -37 -21 -67 -61 -86
-73 -86 -53 0 11 26 42 163 193 54 60 105 120 114 133 33 50 3 32 -68 -40 -51
-53 -75 -72 -81 -63 -10 16 0 76 18 104 20 31 18 33 -16 21 -44 -15 -58 -5
-65 45 -7 48 11 98 42 116 22 13 184 14 236 2z m-2373 -136 c17 -9 30 -18 30
-20 0 -13 -40 -3 -61 15 -29 23 -10 26 31 5z m120 -45 c0 -5 -11 -10 -25 -10
-14 0 -25 5 -25 10 0 6 11 10 25 10 14 0 25 -4 25 -10z m20 -71 c16 -30 7 -34
-45 -19 -62 17 -58 37 7 39 18 1 31 -6 38 -20z m-1106 -50 c36 -31 141 -167
135 -173 -2 -2 -42 -13 -89 -24 l-85 -20 130 -2 c72 -1 139 -5 149 -9 17 -6
16 -9 -10 -19 -39 -15 -88 -27 -222 -57 -145 -32 -175 -48 -72 -41 41 4 118 8
170 11 98 5 96 2 -12 -26 -73 -19 -37 -25 66 -11 163 22 223 -6 182 -86 -18
-34 -30 -41 -110 -56 -82 -15 -86 -36 -7 -36 33 0 62 -4 66 -9 7 -13 -59 -31
-114 -31 -37 0 -49 -5 -75 -34 -64 -67 -87 -69 -282 -26 -75 17 -169 33 -210
37 l-75 6 80 77 c45 42 81 84 81 94 0 21 -26 31 -130 50 -44 9 -90 21 -101 27
-20 10 -20 11 -3 30 10 11 63 46 119 77 55 31 108 65 118 75 17 17 17 20 -17
68 -20 27 -36 53 -36 59 0 14 46 42 104 62 32 11 81 17 133 18 78 0 84 -2 117
-31z m665 -85 c21 -15 23 -22 18 -69 -9 -87 -85 -215 -127 -215 -9 0 -25 -10
-36 -22 -17 -19 -17 -21 -1 -15 30 11 18 -10 -32 -55 -54 -49 -136 -96 -147
-85 -4 4 7 37 24 74 17 38 35 101 42 142 15 106 72 218 125 249 30 17 107 15
134 -4z m-1620 -65 c18 -11 31 -22 28 -25 -7 -8 -77 26 -77 37 0 14 12 11 49
-12z m4331 -84 c0 -29 22 -45 102 -75 92 -34 90 -55 -7 -68 -32 -4 -60 -13
-63 -20 -5 -16 50 -68 113 -107 27 -16 53 -38 59 -47 26 -43 -39 -107 -184
-180 -80 -40 -161 -48 -243 -24 -75 22 -83 21 -97 -14 -15 -35 -37 -50 -77
-50 -15 0 -57 -7 -93 -14 -36 -8 -68 -12 -73 -9 -11 6 10 41 62 103 25 30 38
51 29 47 -24 -9 -30 6 -12 32 22 31 81 58 162 75 95 20 296 115 279 132 -2 2
-40 -9 -85 -26 -44 -16 -127 -41 -184 -55 -57 -15 -118 -35 -137 -46 -18 -11
-36 -18 -38 -15 -10 9 32 58 74 87 23 16 43 32 43 35 0 2 -19 1 -42 -2 -62
-10 -40 10 45 41 156 58 177 68 216 108 23 22 41 44 41 48 0 11 82 69 97 69 7
0 13 -11 13 -25z m-966 -204 c75 -47 355 -101 423 -82 57 16 58 15 19 -31 -36
-41 -45 -71 -26 -83 18 -11 11 -70 -15 -122 -32 -64 -110 -138 -161 -152 -67
-19 -151 -14 -174 9 -29 29 -17 40 33 34 43 -5 74 6 64 23 -4 6 -36 13 -73 16
-41 3 -72 11 -82 21 -16 16 -13 19 48 38 8 2 -10 8 -40 11 -91 11 -141 66 -70
78 44 7 24 16 -49 22 -64 5 -96 33 -107 94 -19 103 116 182 210 124z m-1864
-532 c82 -13 114 -28 118 -56 7 -50 -175 -362 -266 -456 -101 -103 -203 -116
-238 -30 -21 48 -31 313 -14 373 14 54 110 154 162 169 45 13 159 13 238 0z
m2174 -25 c9 -8 16 -23 16 -31 0 -13 -5 -12 -25 7 -32 30 -33 12 -5 -61 31
-78 20 -93 -18 -26 -22 38 -38 57 -51 57 -11 0 -23 5 -26 10 -3 6 0 10 8 10 8
0 21 7 28 16 11 13 28 24 56 33 1 1 9 -6 17 -15z m-130 -104 c49 -81 119 -244
145 -340 33 -118 24 -149 -13 -47 -11 28 -24 47 -33 47 -13 0 -14 8 -9 43 l6
42 -19 -22 -19 -22 -4 52 c-3 34 -24 96 -61 180 -31 70 -57 130 -57 133 0 20
31 -12 64 -66z m282 -247 c-6 -14 -9 -15 -20 -2 -19 20 -56 125 -55 157 0 21
9 9 41 -55 24 -50 38 -89 34 -100z m-238 -125 c12 -16 38 -92 47 -141 11 -56
-10 -46 -44 21 -16 32 -36 64 -45 71 -20 17 -20 8 0 -30 27 -54 11 -69 -19
-18 -33 56 -34 73 -5 93 27 19 52 20 66 4z m-1348 -26 c0 -41 -60 -116 -265
-332 -113 -119 -248 -276 -349 -402 -42 -54 -81 -98 -87 -98 -5 0 -24 7 -41
16 -39 20 -53 14 -142 -65 -38 -33 -72 -61 -77 -61 -4 0 -30 37 -59 81 l-52
81 60 62 c69 70 140 182 240 381 84 167 99 185 152 185 22 0 40 -4 40 -9 0 -5
-14 -33 -32 -60 -17 -28 -28 -54 -25 -57 15 -15 37 10 76 86 54 102 83 120 83
48 0 -38 -44 -118 -132 -243 -66 -94 -73 -105 -66 -105 9 0 141 163 184 227
45 66 100 117 144 132 37 13 36 3 -8 -66 -19 -30 -33 -57 -31 -60 3 -2 44 46
92 107 100 128 120 144 167 136 22 -4 46 0 73 13 51 25 55 25 55 3z m1656 -44
c-3 -18 -8 -64 -12 -103 -4 -38 -11 -76 -17 -82 -11 -15 -113 -18 -121 -4 -3
5 19 40 49 77 31 38 58 80 62 94 13 54 49 70 39 18z m-116 -13 c0 -14 -4 -25
-10 -25 -11 0 -14 33 -3 43 11 11 13 8 13 -18z m-341 1 c52 -28 110 -140 97
-192 -11 -42 -41 -30 -84 34 -74 109 -93 147 -80 160 16 16 33 15 67 -2z m591
-56 c45 -91 74 -222 61 -280 l-7 -35 -12 35 c-6 19 -15 75 -21 123 -11 89 -16
107 -30 107 -5 0 -8 -100 -8 -222 1 -198 -20 -463 -31 -403 -2 11 -5 26 -8 34
-9 27 -33 -11 -40 -61 -10 -69 2 -117 31 -128 27 -10 32 -28 39 -167 4 -73 11
-105 35 -161 17 -39 31 -79 31 -90 0 -11 3 -28 6 -37 6 -14 8 -14 23 -1 9 8
27 16 40 18 62 8 51 77 -19 118 -69 40 -74 63 -75 325 0 121 4 261 10 310 9
82 10 63 15 -200 7 -328 5 -321 90 -435 28 -37 50 -75 50 -84 0 -45 -60 -115
-122 -140 -72 -30 -117 -14 -150 53 -20 41 -23 67 -29 231 -6 174 -8 190 -38
272 -17 49 -31 99 -31 113 0 14 16 76 36 138 57 176 63 209 75 417 6 107 13
201 15 209 6 19 41 -13 64 -59z m-701 -9 c56 -58 168 -245 177 -292 l7 -34
-37 35 c-21 19 -43 49 -50 65 -13 31 -88 105 -106 105 -13 0 -13 -17 0 -25 6
-3 10 -11 10 -16 0 -15 -69 45 -107 92 -18 23 -33 51 -33 63 0 15 12 4 40 -39
45 -67 49 -64 20 12 -18 47 -18 54 -4 68 24 23 34 19 83 -34z m1768 -88 c-11
-197 -45 -353 -118 -539 -49 -124 -109 -226 -218 -364 -95 -122 -180 -284
-211 -405 -30 -120 -39 -212 -40 -405 0 -101 -4 -169 -9 -160 -17 29 -21 178
-12 366 12 223 20 256 114 436 33 65 58 120 55 123 -8 8 -69 -80 -120 -170
-23 -41 -46 -75 -50 -75 -11 0 -10 9 8 71 35 117 141 292 288 473 142 176 223
312 260 436 20 66 46 229 46 288 0 23 3 42 7 42 3 0 3 -53 0 -117z m-1498 25
c5 -13 7 -25 4 -28 -5 -6 -33 30 -33 42 0 17 21 7 29 -14z m-408 -45 c61 -64
104 -122 97 -129 -10 -9 -182 162 -174 174 12 20 20 15 77 -45z m-405 -20
c-40 -56 -86 -146 -86 -167 0 -8 -9 -17 -19 -21 -11 -3 -25 -21 -31 -40 -24
-72 -226 -256 -264 -242 -11 5 -16 21 -17 54 -1 65 -12 97 -32 101 -9 2 -51
-29 -101 -77 -60 -56 -106 -90 -158 -114 -94 -45 -213 -87 -243 -87 l-24 0 38
83 c49 106 56 136 40 197 -11 45 -11 51 6 70 22 25 31 19 14 -9 -7 -11 -10
-24 -5 -28 4 -4 60 47 124 115 113 118 142 140 142 106 0 -21 -16 -49 -62
-110 -21 -28 -38 -54 -38 -57 0 -22 42 20 125 123 93 117 112 136 121 127 7
-7 -16 -54 -72 -147 -28 -47 -57 -95 -63 -107 -22 -43 4 -23 49 36 51 68 99
104 131 99 32 -4 33 -21 4 -56 -30 -36 -33 -52 -4 -26 37 33 78 100 91 148 12
46 28 62 28 28 0 -10 7 -28 16 -40 30 -43 137 -21 254 53 30 19 58 35 62 35 5
0 -7 -21 -26 -47z m379 -43 c33 -31 81 -74 108 -95 26 -21 46 -40 43 -42 -6
-6 -103 54 -155 96 -57 45 -111 104 -105 113 8 13 45 -12 109 -72z m-209 -6
c25 -42 60 -72 71 -60 3 2 -7 20 -21 39 -73 96 13 62 115 -46 32 -33 57 -63
54 -65 -2 -2 -23 8 -48 22 -30 18 -58 26 -91 26 -26 0 -56 5 -67 10 -22 13
-59 80 -59 110 0 29 15 17 46 -36z m922 -23 c26 -14 29 -39 5 -37 -16 1 -18
-8 -16 -84 l2 -85 -18 50 c-10 28 -22 48 -27 45 -9 -5 -7 -118 3 -155 10 -38
-13 -1 -27 43 -24 77 -34 62 -27 -44 l6 -99 -22 40 c-20 38 -22 39 -25 15 -2
-13 1 -58 8 -98 14 -85 6 -102 -32 -72 -15 11 -31 20 -38 20 -15 0 20 -49 92
-129 79 -86 80 -110 2 -46 -23 19 -45 35 -48 35 -17 0 0 -27 57 -93 103 -119
116 -148 82 -193 -15 -18 -16 -18 -37 11 -39 52 -90 93 -176 142 -133 77 -180
116 -188 160 -10 50 19 188 56 273 20 47 30 89 35 150 3 47 8 105 11 129 l6
44 146 -5 c86 -3 157 -10 170 -17z m-1882 -71 c-14 -22 -34 -40 -42 -40 -18 0
-13 10 35 62 35 39 39 26 7 -22z m3124 -294 c-9 -75 -25 -138 -66 -255 -73
-207 -137 -336 -223 -451 -91 -122 -187 -311 -207 -408 -21 -106 -20 -376 2
-509 19 -107 15 -138 -17 -138 -26 0 -37 85 -38 298 -2 447 43 627 210 846
121 160 193 274 214 340 13 43 -13 13 -89 -102 -40 -62 -97 -139 -125 -172
-72 -83 -113 -147 -168 -260 -25 -52 -48 -93 -50 -91 -8 8 38 137 75 211 19
39 64 113 100 165 156 226 196 289 243 382 56 112 99 234 126 358 l18 85 3
-100 c2 -55 -2 -145 -8 -199z m-1636 141 c17 -26 -12 -72 -47 -72 -40 -1 -44
-14 -12 -40 26 -20 28 -24 12 -30 -9 -4 -36 0 -58 9 -23 9 -44 15 -46 12 -12
-12 9 -38 43 -52 42 -18 44 -47 2 -52 -20 -2 -39 7 -74 40 -60 55 -126 137
-119 149 4 5 31 16 61 25 126 36 219 41 238 11z m-1707 -124 c6 -17 -41 -37
-64 -29 -17 7 -16 9 6 27 26 21 52 22 58 2z m2463 -785 c0 -42 -36 -85 -94
-112 -58 -28 -76 -32 -76 -17 0 19 53 72 91 91 21 11 43 29 49 40 14 27 30 25
30 -2z m207 -165 c-3 -10 -5 -2 -5 17 0 19 2 27 5 18 2 -10 2 -26 0 -35z
m-257 -25 c26 -18 38 -36 51 -80 9 -32 15 -58 13 -58 -1 0 -17 21 -35 48 -40
59 -38 56 -45 50 -9 -9 25 -115 46 -141 15 -18 26 -23 49 -19 35 5 39 -1 72
-122 36 -125 73 -166 64 -68 l-5 47 16 -45 c11 -29 16 -73 15 -127 -2 -100 57
-383 79 -383 5 0 14 15 21 33 13 30 14 27 17 -62 1 -51 0 -96 -3 -99 -3 -3
-15 4 -28 15 -12 12 -31 23 -42 25 -30 5 -55 67 -149 369 -47 151 -110 345
-141 432 -73 209 -72 237 5 185z m107 -28 c52 -110 32 -138 -22 -30 -40 80
-41 83 -17 78 9 -2 27 -23 39 -48z m80 -213 c4 -24 2 -37 -6 -37 -6 0 -11 11
-11 24 0 14 -5 37 -11 53 -9 26 -9 27 6 12 9 -8 18 -32 22 -52z m343 -818 c0
-5 -4 -9 -8 -9 -9 0 -32 44 -32 58 1 10 40 -38 40 -49z m64 -124 c21 -32 34
-91 17 -81 -13 8 -51 79 -51 96 0 18 17 11 34 -15z m26 -199 c0 -44 -17 -19
-24 34 -6 43 -6 44 8 20 9 -14 15 -38 16 -54z m-47 -293 c-28 -19 -29 -51 -7
-143 32 -139 62 -178 50 -67 -5 50 -4 58 6 42 6 -10 15 -80 19 -155 8 -149 19
-233 51 -387 22 -108 37 -132 39 -60 1 39 2 37 20 -33 33 -129 127 -719 138
-855 5 -71 13 -139 17 -149 16 -42 23 19 19 164 -7 199 7 153 44 -145 17 -132
33 -254 37 -272 5 -25 3 -32 -12 -35 -18 -3 -19 -19 -19 -290 0 -255 -4 -313
-20 -297 -2 3 -8 136 -13 297 -9 271 -13 314 -27 300 -6 -5 -19 -212 -34 -534
-10 -199 -24 -282 -41 -239 -5 11 -13 171 -19 355 -13 389 -24 493 -117 1090
-94 607 -184 1063 -235 1202 -16 44 -29 92 -29 108 0 52 77 119 135 119 19 0
19 -1 -2 -16z m107 -101 c28 -102 131 -685 129 -737 -1 -30 -1 -30 -9 -5 -8
22 -129 661 -143 753 -7 47 9 40 23 -11z m14 -374 c4 -27 3 -48 -2 -48 -11 0
-32 92 -31 138 l1 37 13 -40 c6 -22 15 -61 19 -87z m26 -160 c-1 -26 -3 -30
-10 -16 -6 9 -7 23 -4 32 9 25 14 19 14 -16z m117 -335 c-4 -17 -4 -17 -12 0
-4 9 -4 25 0 35 8 16 8 16 12 0 3 -10 3 -26 0 -35z m24 -205 c-8 -30 -9 -28
-9 27 0 50 1 56 9 33 7 -17 7 -38 0 -60z m29 -113 c0 -14 -4 -25 -10 -25 -5 0
-10 11 -10 25 0 14 5 25 10 25 6 0 10 -11 10 -25z m17 -142 c-3 -10 -5 -2 -5
17 0 19 2 27 5 18 2 -10 2 -26 0 -35z m-253 -827 c32 -13 76 -62 89 -98 10
-29 -11 -21 -58 23 -48 45 -54 42 -30 -14 21 -50 19 -52 -14 -25 -16 14 -56
33 -90 42 -55 15 -61 19 -49 33 14 17 85 52 106 53 7 0 28 -6 46 -14z m385
-211 c-1 -77 -5 -153 -9 -170 -4 -17 -8 48 -9 155 0 123 3 180 9 170 5 -8 9
-78 9 -155z m-487 61 c119 -52 146 -77 162 -151 8 -33 23 -95 35 -139 24 -89
17 -127 -9 -45 -30 98 -138 299 -160 299 -11 0 6 -50 50 -145 34 -74 72 -175
65 -175 -2 0 -38 59 -80 130 -43 72 -81 133 -86 136 -20 12 -6 -26 55 -155 62
-133 102 -241 88 -241 -4 0 -17 27 -30 59 -24 61 -46 89 -56 72 -3 -5 5 -51
18 -103 42 -161 69 -203 78 -121 3 31 3 31 26 13 l22 -18 -41 -78 c-48 -92
-153 -257 -176 -275 -20 -17 -38 6 -58 74 -39 132 -39 347 0 442 15 35 18 38
30 22 7 -9 18 -50 25 -91 18 -105 90 -230 116 -203 4 4 -2 25 -14 46 -12 22
-36 102 -52 178 -50 236 -97 341 -178 398 -42 28 -49 30 -138 29 -52 0 -94 3
-94 7 0 10 58 36 135 58 96 28 160 23 267 -23z m-176 -131 c83 -86 99 -160 54
-245 l-24 -45 -6 45 c-10 82 -28 90 -59 27 -38 -79 -98 -410 -86 -469 5 -21 3
-28 -9 -28 -32 0 -29 69 15 309 10 58 19 111 19 119 0 21 -17 5 -24 -24 -4
-15 -29 -87 -57 -161 -27 -73 -49 -148 -49 -166 l0 -32 -20 25 c-10 14 -21 22
-24 19 -3 -3 -9 -80 -14 -172 -4 -91 -11 -169 -15 -173 -17 -17 -22 15 -20
122 3 196 19 269 111 502 22 56 37 102 33 102 -14 0 -159 -314 -170 -368 -13
-65 -14 -354 -1 -477 5 -50 16 -110 24 -133 23 -63 1 -50 -33 21 -50 101 -64
188 -58 362 5 123 12 176 40 295 44 187 48 210 38 210 -12 0 -47 -102 -77
-218 -68 -267 -55 -567 32 -745 l25 -52 -27 30 c-88 101 -120 194 -138 397
-12 142 -13 143 -25 98 -29 -100 2 -317 62 -435 25 -51 130 -160 168 -175 37
-16 37 -30 2 -30 -132 1 -254 190 -297 460 -9 51 -18 96 -22 99 -14 13 6 -228
26 -303 30 -117 108 -239 192 -300 60 -43 80 -37 173 57 102 102 358 481 361
535 1 20 12 43 31 62 15 16 61 82 100 147 91 150 129 203 147 203 15 0 15 -12
-5 -130 -5 -30 -12 -100 -15 -155 -8 -114 -13 -129 -46 -130 -31 0 -37 -39 -9
-55 19 -9 21 -20 21 -95 0 -101 -31 -209 -85 -300 -34 -57 -105 -139 -112
-131 -2 2 17 36 42 75 50 77 80 140 71 149 -11 10 -43 -29 -94 -112 -46 -74
-82 -120 -82 -102 0 4 20 42 44 84 25 42 48 91 52 107 4 17 31 82 60 146 53
114 63 149 44 149 -14 0 -89 -133 -132 -235 -54 -125 -55 -128 -111 -190 -48
-54 -99 -90 -110 -78 -4 3 8 25 25 49 55 76 14 67 -82 -18 -30 -26 -73 -57
-96 -68 -88 -43 -234 -21 -314 47 -102 88 -181 372 -167 608 11 185 81 391
210 620 46 81 83 131 142 191 92 93 151 123 249 123 58 1 61 0 102 -44z m1252
-129 c34 -18 100 -87 142 -149 115 -172 326 -778 380 -1093 17 -97 10 -202
-15 -220 -10 -8 -22 -14 -27 -14 -17 0 -28 43 -38 151 -15 163 -29 263 -51
351 -24 96 -101 316 -106 302 -2 -6 12 -71 31 -145 43 -164 54 -239 66 -439 9
-153 7 -198 -5 -124 -36 221 -68 371 -132 628 -67 270 -88 286 -32 25 71 -336
94 -484 105 -675 7 -133 2 -176 -20 -168 -21 8 -26 38 -41 268 -8 116 -21 252
-30 301 -17 97 -54 230 -61 222 -3 -2 5 -60 18 -128 19 -105 22 -160 23 -354
0 -167 -4 -240 -13 -267 -8 -21 -17 -38 -22 -38 -4 0 -10 118 -13 263 -6 292
-24 449 -74 647 -34 138 -161 440 -185 440 -12 0 -2 -32 33 -103 64 -127 122
-358 155 -615 29 -228 20 -620 -16 -656 -14 -14 -20 61 -30 409 -6 216 -15
356 -25 404 -19 98 -75 271 -87 271 -12 0 -4 -44 37 -210 41 -166 44 -189 55
-390 9 -181 -1 -375 -24 -435 -14 -37 -15 -21 -15 230 -1 149 -5 306 -10 350
-10 88 -40 229 -47 222 -3 -2 1 -47 8 -98 24 -184 12 -557 -22 -716 -12 -55
-42 -104 -56 -90 -4 4 2 58 14 120 41 209 56 449 31 514 -19 49 -26 7 -32
-177 -4 -118 -12 -204 -25 -265 -34 -154 -86 -265 -113 -238 -9 9 -4 44 19
150 17 76 36 169 42 207 24 154 7 449 -46 761 -32 195 -58 293 -100 386 -40
89 -40 93 -14 119 15 15 33 20 75 20 72 0 144 16 175 40 30 23 80 26 118 6z
m-558 -117 c0 -6 -20 -34 -45 -61 -28 -31 -51 -69 -60 -101 -21 -67 -35 -239
-34 -397 l2 -125 8 80 c31 302 89 487 171 548 47 35 43 10 -7 -50 -26 -32 -54
-72 -61 -89 -30 -71 -72 -472 -45 -424 11 19 30 138 40 250 7 77 9 82 19 58
17 -41 28 -34 42 22 7 28 15 50 20 50 8 0 6 -13 -21 -155 -10 -55 -23 -138
-29 -185 -14 -115 -13 -408 2 -559 l12 -123 -37 -35 c-64 -58 -77 -48 -110 82
-45 183 -58 272 -64 465 -9 297 18 501 87 646 16 33 41 73 56 87 28 28 54 35
54 16z m-130 -20 c0 -17 -20 -49 -30 -49 -5 0 -7 7 -5 15 3 8 7 22 10 30 5 17
25 21 25 4z m-563 -116 c-3 -10 -5 -2 -5 17 0 19 2 27 5 18 2 -10 2 -26 0 -35z
m473 -154 c-6 -38 -17 -72 -22 -75 -15 -10 -4 115 12 147 20 37 25 6 10 -72z
m435 37 c21 -32 41 -131 70 -338 27 -201 42 -438 26 -402 -13 29 -51 256 -52
313 -1 25 -5 60 -8 76 -7 29 -8 28 -17 -20 -5 -27 -9 -113 -9 -190 0 -128 3
-149 32 -250 18 -60 35 -130 38 -155 6 -44 6 -45 -9 -19 -48 83 -94 321 -103
539 -6 131 -8 148 -16 110 -5 -25 -9 -128 -9 -230 -1 -200 17 -354 53 -457 37
-109 48 -153 38 -153 -14 0 -56 97 -79 183 -51 193 -63 617 -24 847 5 27 4 32
-5 24 -7 -6 -24 -71 -38 -145 -22 -114 -26 -162 -27 -329 -1 -223 15 -341 70
-532 39 -133 41 -146 20 -128 -24 19 -74 180 -106 345 -47 236 -46 426 5 689
31 164 51 233 71 244 24 13 63 2 79 -22z m-916 -50 c12 -67 15 -183 4 -172 -4
4 -12 61 -18 126 -11 125 -4 147 14 46z m-170 -236 c17 -143 30 -187 77 -256
44 -64 52 -84 35 -84 -11 0 -75 71 -92 101 -26 49 -39 128 -38 234 1 125 4
126 18 5z m621 -86 c18 -243 30 -549 31 -847 1 -163 5 -300 10 -303 5 -3 9 7
9 21 0 46 32 248 46 290 13 37 13 31 8 -75 -2 -63 -11 -168 -18 -232 -7 -65
-9 -118 -6 -118 8 0 33 86 49 170 29 148 29 147 30 114 4 -113 -94 -783 -117
-806 -4 -4 -6 43 -5 105 2 119 -2 109 -27 -65 l-12 -88 -128 0 -129 0 19 43
c33 74 60 217 145 757 33 209 37 249 45 563 7 294 27 613 37 604 2 -2 7 -62
13 -133z m-544 20 c7 -28 30 -75 50 -104 21 -31 33 -58 29 -68 -5 -13 -10 -12
-31 10 -34 34 -74 147 -73 206 1 26 3 38 6 27 2 -11 11 -43 19 -71z m87 2 c15
-24 39 -51 52 -60 26 -17 24 -49 -2 -44 -14 3 -93 122 -93 140 0 19 17 5 43
-36z m-207 -157 c5 -35 4 -42 -6 -32 -7 6 -14 33 -17 60 -5 60 13 38 23 -28z
m-27 -139 c8 -14 31 -48 52 -76 22 -28 39 -56 39 -62 0 -20 -27 -14 -58 13
-40 33 -69 106 -76 190 l-6 70 18 -55 c10 -30 24 -66 31 -80z m109 3 c28 -29
41 -48 33 -51 -13 -4 -76 50 -92 81 -19 34 14 18 59 -30z m772 -568 c0 -14 -4
-25 -10 -25 -5 0 -10 11 -10 25 0 14 5 25 10 25 6 0 10 -11 10 -25z"/>
<path d="M4133 12120 c0 -25 2 -35 4 -22 2 12 2 32 0 45 -2 12 -4 2 -4 -23z"/>
<path d="M4032 12080 c0 -19 2 -27 5 -17 2 9 2 25 0 35 -3 9 -5 1 -5 -18z"/>
<path d="M4376 11801 c-37 -82 -47 -121 -22 -85 20 28 70 154 64 160 -3 2 -21
-32 -42 -75z"/>
<path d="M4392 11653 c-15 -29 -23 -73 -14 -73 9 0 42 64 42 80 0 16 -19 11
-28 -7z"/>
<path d="M2114 11673 c22 -60 39 -93 48 -93 12 0 10 7 -18 71 -30 65 -51 81
-30 22z"/>
<path d="M1600 11004 c0 -40 55 -87 140 -118 146 -55 211 -90 307 -167 99 -79
113 -88 113 -69 0 45 -105 150 -203 204 -34 19 -109 51 -167 72 -68 24 -117
49 -141 71 -44 40 -49 41 -49 7z"/>
<path d="M1525 10635 c60 -53 126 -98 132 -91 4 3 4 8 2 9 -37 30 -161 117
-166 117 -5 0 10 -16 32 -35z"/>
<path d="M1350 10560 c13 -24 45 -42 68 -38 13 3 7 11 -23 31 -47 32 -60 34
-45 7z"/>
<path d="M843 10333 c9 -2 25 -2 35 0 9 3 1 5 -18 5 -19 0 -27 -2 -17 -5z"/>
<path d="M880 10290 c-11 -7 -6 -10 20 -10 26 0 31 3 20 10 -8 5 -17 10 -20
10 -3 0 -12 -5 -20 -10z"/>
<path d="M955 9980 l-30 -7 38 -7 c45 -10 170 2 162 15 -7 10 -125 10 -170 -1z"/>
<path d="M2927 11598 c-4 -13 -9 -61 -13 -108 -5 -68 -4 -83 6 -73 8 7 15 49
18 107 5 93 0 120 -11 74z"/>
<path d="M2830 11566 c-12 -34 -13 -56 -1 -56 15 0 33 62 22 73 -7 7 -14 1
-21 -17z"/>
<path d="M2560 11320 c0 -22 37 -100 66 -137 43 -56 47 -36 8 35 -44 83 -74
123 -74 102z"/>
<path d="M4639 11253 c-24 -38 -68 -96 -97 -130 -29 -35 -47 -63 -41 -63 26 0
137 138 183 228 29 57 0 34 -45 -35z"/>
<path d="M4440 11269 c-12 -23 -19 -43 -16 -46 6 -7 46 58 46 75 0 22 -9 13
-30 -29z"/>
<path d="M1180 11130 c0 -5 14 -10 30 -10 17 0 30 5 30 10 0 6 -13 10 -30 10
-16 0 -30 -4 -30 -10z"/>
<path d="M1100 11080 c0 -9 106 -43 168 -54 58 -10 34 13 -35 33 -90 26 -133
33 -133 21z"/>
<path d="M5360 10883 c-26 -10 -70 -44 -70 -54 0 -14 38 -1 73 23 38 27 37 46
-3 31z"/>
<path d="M5438 10715 c-69 -36 -101 -63 -57 -50 40 12 129 58 140 72 19 23
-11 15 -83 -22z"/>
<path d="M5342 10413 c-24 -10 0 -23 43 -23 48 0 75 8 75 21 0 9 -96 11 -118
2z"/>
<path d="M5391 10349 c-17 -7 -21 -13 -14 -20 12 -12 53 5 53 21 0 12 -7 12
-39 -1z"/>
<path d="M4560 10833 c-36 -24 -70 -55 -70 -65 0 -18 24 -6 68 37 47 45 48 58
2 28z"/>
<path d="M3966 10448 c-75 -76 -147 -181 -210 -307 -26 -51 -49 -91 -52 -88
-4 4 27 134 62 251 16 58 17 69 5 61 -16 -9 -50 -110 -91 -267 -35 -134 -39
-178 -11 -130 14 23 14 2 0 -54 -11 -43 -12 -44 -30 -28 -17 16 -18 15 -13
-17 4 -24 -2 -48 -20 -84 -14 -27 -23 -51 -21 -54 11 -10 102 98 144 169 66
113 125 184 209 256 91 78 193 130 282 145 75 13 91 23 61 38 -57 31 -289 -90
-451 -234 -36 -33 -66 -53 -68 -46 -6 17 62 155 105 215 20 28 66 85 103 126
94 107 96 110 75 110 -9 0 -45 -28 -79 -62z"/>
<path d="M3959 10343 c-14 -16 -32 -37 -40 -47 -13 -18 -13 -19 7 -8 23 12 80
82 66 82 -4 0 -19 -12 -33 -27z"/>
<path d="M3387 10181 c-15 -46 -25 -86 -23 -89 8 -7 46 61 52 94 3 17 4 42 2
55 -3 17 -12 0 -31 -60z"/>
<path d="M3187 10181 c-2 -10 -1 -25 4 -32 6 -10 9 -4 9 19 0 36 -5 42 -13 13z"/>
<path d="M2997 10129 c26 -34 54 -68 60 -77 21 -25 27 -5 8 24 -25 39 -96 114
-107 114 -5 0 12 -28 39 -61z"/>
<path d="M3905 10020 c-16 -16 -24 -30 -19 -30 6 0 23 14 39 30 16 17 24 30
19 30 -6 0 -23 -13 -39 -30z"/>
<path d="M4060 9938 l-35 -11 29 -8 c35 -10 88 0 83 15 -5 15 -35 17 -77 4z"/>
<path d="M3780 9881 c-13 -25 -13 -34 0 -26 16 10 32 45 21 45 -6 0 -15 -9
-21 -19z"/>
<path d="M3309 9809 c-7 -14 -8 -24 -1 -31 17 -17 42 -1 42 27 0 31 -25 34
-41 4z"/>
<path d="M3646 9722 c-81 -69 -87 -91 -14 -50 39 21 108 101 97 112 -2 3 -40
-25 -83 -62z"/>
<path d="M2885 9689 c-102 -13 -239 -70 -275 -114 -24 -29 -5 -25 91 21 89 41
165 62 282 79 26 3 45 10 42 16 -7 10 -54 10 -140 -2z"/>
<path d="M3321 9598 c45 -64 185 -200 226 -220 47 -22 183 -145 183 -166 0
-18 -39 -7 -138 39 -113 52 -151 84 -233 200 -117 163 -119 140 -6 -66 127
-233 231 -395 245 -381 2 3 -19 52 -46 110 -35 74 -46 106 -37 106 34 0 126
-44 187 -90 44 -33 92 -84 138 -146 40 -53 74 -93 77 -90 3 3 -16 43 -43 88
-84 144 -114 202 -114 224 0 25 -39 85 -78 120 -15 13 -73 57 -130 96 -59 40
-130 100 -165 139 -65 72 -107 95 -66 37z"/>
<path d="M2946 9498 c-39 -45 -132 -225 -122 -235 8 -8 4 -13 64 92 28 50 67
106 86 124 20 19 36 41 36 48 0 25 -29 12 -64 -29z"/>
<path d="M2473 9449 c-50 -25 -74 -49 -49 -49 34 0 108 51 94 65 -2 2 -23 -5
-45 -16z"/>
<path d="M1723 9395 c-65 -30 -93 -55 -62 -55 12 0 179 80 179 86 0 13 -54 -1
-117 -31z"/>
<path d="M1860 9361 c-30 -9 -75 -30 -100 -46 -59 -37 -272 -207 -266 -212 8
-8 49 19 138 89 48 38 113 84 143 103 60 36 145 61 172 51 14 -6 13 -9 -6 -30
l-22 -23 45 10 c52 12 57 27 20 56 -32 25 -52 25 -124 2z"/>
<path d="M3321 9054 c1 -65 4 -157 8 -204 6 -76 7 -81 14 -45 8 42 -7 352 -17
362 -3 4 -6 -47 -5 -113z"/>
<path d="M3400 9098 c1 -27 27 -148 33 -155 11 -10 8 64 -4 113 -11 42 -29 70
-29 42z"/>
<path d="M2350 9058 c-11 -18 -20 -40 -20 -48 1 -15 50 57 50 73 0 15 -11 6
-30 -25z"/>
<path d="M3176 8914 c-22 -73 -17 -105 8 -56 10 20 16 50 14 75 l-3 42 -19
-61z"/>
<path d="M1595 8480 c-16 -16 -24 -30 -19 -30 6 0 23 14 39 30 16 17 24 30 19
30 -6 0 -23 -13 -39 -30z"/>
<path d="M1940 8428 c-22 -36 -23 -89 -2 -96 9 -3 11 3 6 22 -4 17 1 36 15 59
24 39 26 47 11 47 -6 0 -19 -15 -30 -32z"/>
<path d="M1798 8245 c-6 -14 -8 -28 -4 -33 10 -9 48 37 40 49 -10 16 -24 10
-36 -16z"/>
<path d="M4895 10543 c-25 -14 -27 -18 -12 -21 28 -6 64 6 71 23 7 20 -20 19
-59 -2z"/>
<path d="M4986 10228 c-27 -18 -44 -34 -38 -36 14 -4 85 32 101 52 23 27 -9
19 -63 -16z"/>
<path d="M4553 9852 c-57 -32 -68 -41 -63 -45 8 -8 81 20 97 36 23 22 0 28
-34 9z"/>
<path d="M1492 10088 c-18 -18 -15 -28 8 -28 13 0 20 7 20 20 0 23 -10 26 -28
8z"/>
<path d="M1504 10019 c-13 -21 13 -33 46 -19 46 19 46 30 1 30 -22 0 -43 -5
-47 -11z"/>
<path d="M1664 9689 c-104 -17 -103 -28 1 -23 144 7 204 14 210 25 7 11 -140
10 -211 -2z"/>
<path d="M1465 9640 c-4 -6 6 -10 22 -10 22 0 25 2 13 10 -19 12 -27 12 -35 0z"/>
<path d="M2144 9955 c-18 -14 -18 -14 7 -15 14 0 34 7 45 15 18 14 18 14 -7
15 -14 0 -34 -7 -45 -15z"/>
<path d="M4620 9687 c-24 -11 -24 -11 15 -15 21 -2 55 0 75 3 30 6 32 9 15 15
-29 12 -76 11 -105 -3z"/>
<path d="M4755 9520 c-4 -6 7 -10 27 -9 27 0 30 2 13 9 -27 12 -33 12 -40 0z"/>
<path d="M4585 9489 c-11 -17 2 -22 39 -15 50 10 55 26 7 26 -22 0 -43 -5 -46
-11z"/>
<path d="M3873 9563 c9 -2 25 -2 35 0 9 3 1 5 -18 5 -19 0 -27 -2 -17 -5z"/>
<path d="M1974 9141 c-70 -53 -99 -79 -93 -85 7 -7 122 74 134 94 14 23 -3 19
-41 -9z"/>
<path d="M2137 9105 c-46 -24 -84 -57 -123 -109 l-37 -48 75 58 c41 33 90 67
107 76 18 10 29 22 26 28 -8 13 -15 13 -48 -5z"/>
<path d="M2080 8195 c-13 -14 -21 -27 -18 -30 2 -3 17 9 33 25 16 17 24 30 19
30 -6 0 -21 -11 -34 -25z"/>
<path d="M4036 8498 c15 -29 29 -47 31 -41 5 14 -37 93 -49 93 -5 0 4 -24 18
-52z"/>
<path d="M3860 8533 c0 -4 18 -33 40 -63 46 -63 55 -50 10 15 -30 44 -50 63
-50 48z"/>
<path d="M5610 3769 c0 -72 20 -311 29 -349 15 -58 12 171 -3 282 -13 106 -26
138 -26 67z"/>
<path d="M5738 3382 c-3 -9 -1 -26 3 -37 6 -15 8 -11 8 18 1 40 -4 48 -11 19z"/>
<path d="M5683 570 c-7 -30 -15 -73 -18 -95 -6 -37 -5 -39 9 -21 18 22 29 86
24 136 -3 33 -4 32 -15 -20z"/>
<path d="M5606 563 c-12 -66 -17 -272 -6 -239 10 32 26 276 18 276 -3 0 -8
-17 -12 -37z"/>
<path d="M5573 215 c0 -22 2 -30 4 -17 2 12 2 30 0 40 -3 9 -5 -1 -4 -23z"/>
<path d="M422 9701 c-53 -18 -89 -41 -64 -41 22 0 122 41 122 51 0 11 6 12
-58 -10z"/>
<path d="M540 9635 c-70 -38 -104 -65 -81 -65 19 0 171 81 171 91 0 16 -24 9
-90 -26z"/>
<path d="M875 9576 c-52 -16 -86 -35 -64 -36 22 0 122 30 134 41 13 13 -22 10
-70 -5z"/>
<path d="M609 9460 c-13 -10 -21 -19 -17 -20 14 0 58 23 58 32 0 14 -16 9 -41
-12z"/>
<path d="M3721 4904 c-37 -31 -41 -51 -6 -28 23 15 53 54 41 54 -2 0 -18 -12
-35 -26z"/>
</g>
</svg>
